<svg width="1080" height="1080" viewBox="0 0 1080 1080" xmlns="http://www.w3.org/2000/svg" xmlns:xlink="http://www.w3.org/1999/xlink"><pattern id="a" height="86.37" patternUnits="userSpaceOnUse" viewBox="0 0 86.37 86.37" width="86.37"><path d="m0 0h86.37v86.37h-86.37z" fill="none"/><path d="m43.19 43.19h-43.19v-43.19z" fill="#fffac0"/><path d="m43.19 43.19-43.19-43.19h43.19" fill="#c8eaf5"/><path d="m0 43.19h43.19v43.18z" fill="#fffac0"/><path d="m86.37 86.37h-43.18v-43.18z" fill="#fffac0"/><path d="m86.37 86.37-43.18-43.18h43.18" fill="#c8eaf5"/><path d="m43.19 0h43.18v43.19z" fill="#fffac0"/><path d="m0 43.19 43.19 43.18h-43.19" fill="#c8eaf5"/><path d="m43.19 0 43.18 43.19h-43.18" fill="#c8eaf5"/></pattern><path d="m0 0h1080v1080h-1080z" fill="#fff"/><path d="m540 135-405 810v-810z" fill="#c8eaf5"/><path d="m945 540v405h-810z" fill="#fffac0"/><path d="m945 135v405l-810 405 405-810z" fill="url(#a)"/><path d="m962.83 945h-827.83v-827.83" fill="none" stroke="#000" stroke-miterlimit="10" stroke-width="2"/><path d="m956.2 936.82-1.36 1.47 7.22 6.71-7.22 6.71 1.36 1.47 8.8-8.18z"/><path d="m143.18 123.8-1.47 1.36-6.71-7.22-6.71 7.22-1.47-1.36 8.18-8.8z"/><path d="m115 945h20v20" fill="#fff" stroke="#000" stroke-miterlimit="10" stroke-width="2"/><text font-family="SFProDisplay-Semibold, 'SF Pro Display'" font-size="36" font-weight="600" transform="translate(103.52 981.37)"><tspan x="0" y="0">0</tspan></text><g fill="none" opacity=".4" stroke="#000" stroke-miterlimit="10" stroke-width="2"><path d="m945 135-5.3 5.3"/><path d="m929.04 150.96-783.41 783.41" stroke-dasharray="0 0 15.07 15.07"/><path d="m140.3 939.7-5.3 5.3"/></g><path d="m729.67 853.68h3.06v2.67h.07c.83-1.81 2.65-3.02 5.01-3.02 2.5 0 4.34 1.28 5.13 3.52h.07c1.02-2.2 3.16-3.52 5.73-3.52 3.62 0 5.96 2.37 5.96 6.01v12.62h-3.06v-11.92c0-2.51-1.39-4.01-3.8-4.01s-4.13 1.81-4.13 4.31v11.62h-3.06v-12.25c0-2.21-1.48-3.67-3.74-3.67-2.43 0-4.18 1.92-4.18 4.46v11.46h-3.06z"/><path d="m766.16 860.02 17.4-6.66v2.71l-14.85 5.55 14.85 5.57v2.78l-17.4-6.66z"/><path d="m795.19 869.78 8.93-9.32c3.43-3.57 4.22-4.94 4.22-7.05v-.04c-.02-2.58-1.97-4.45-4.73-4.45-3.16 0-5.52 2.18-5.52 4.9v.09h-3.06v-.11c0-4.39 3.8-7.65 8.53-7.65s7.95 3.08 7.95 7.05v.04c0 2.78-1.28 4.87-5.94 9.63l-6.03 6.19v.07h12.39v2.81h-16.73v-2.18z"/><path d="m729.67 896.88h3.06v2.67h.07c.83-1.81 2.65-3.02 5.01-3.02 2.5 0 4.34 1.28 5.13 3.52h.07c1.02-2.2 3.16-3.52 5.73-3.52 3.62 0 5.96 2.37 5.96 6.01v12.62h-3.06v-11.92c0-2.51-1.39-4.01-3.8-4.01s-4.13 1.81-4.13 4.31v11.62h-3.06v-12.25c0-2.21-1.48-3.67-3.74-3.67-2.43 0-4.18 1.92-4.18 4.46v11.46h-3.06z"/><path d="m757.69 906.02v-.04c0-5.82 3.41-9.46 8.46-9.46s8.47 3.62 8.47 9.46v.04c0 5.84-3.41 9.49-8.46 9.49s-8.47-3.67-8.47-9.49zm13.8 0v-.04c0-4.29-2.11-6.75-5.34-6.75s-5.33 2.48-5.33 6.75v.04c0 4.31 2.13 6.79 5.36 6.79s5.31-2.5 5.31-6.79z"/><path d="m775.41 896.88h3.22l5.04 15.03h.07l5.06-15.03h3.18l-6.71 18.28h-3.13z"/><path d="m792.78 906.09v-.02c0-5.66 3.23-9.54 8.23-9.54s8.03 3.71 8.03 9.19v1.12h-13.17c.07 3.76 2.14 5.96 5.4 5.96 2.32 0 3.96-1.16 4.48-2.72l.05-.16h3.01l-.04.18c-.6 3.02-3.59 5.41-7.58 5.41-5.26 0-8.42-3.67-8.42-9.42zm3.15-1.63h10c-.3-3.55-2.27-5.22-4.94-5.22s-4.73 1.81-5.06 5.22z"/><path d="m818.76 909.99v-.04c0-3.11 2.43-5.06 6.63-5.31l5.24-.3v-1.53c0-2.23-1.46-3.59-4.01-3.59-2.36 0-3.83 1.12-4.18 2.76l-.04.16h-2.95l.02-.19c.26-3.01 2.88-5.43 7.19-5.43s7.03 2.34 7.03 5.99v12.64h-3.06v-2.97h-.07c-1.07 2-3.27 3.32-5.71 3.32-3.64 0-6.08-2.2-6.08-5.52zm6.77 2.87c2.88 0 5.1-1.99 5.1-4.64v-1.49l-4.89.3c-2.44.14-3.85 1.23-3.85 2.94v.04c0 1.76 1.44 2.87 3.64 2.87z"/><path d="m837.72 889.79h3.06v25.37h-3.06z"/><path d="m844.02 906.02v-.04c0-5.82 3.41-9.46 8.46-9.46s8.47 3.62 8.47 9.46v.04c0 5.84-3.41 9.49-8.46 9.49s-8.47-3.67-8.47-9.49zm13.8 0v-.04c0-4.29-2.11-6.75-5.34-6.75s-5.33 2.48-5.33 6.75v.04c0 4.31 2.13 6.79 5.36 6.79s5.31-2.5 5.31-6.79z"/><path d="m864.02 896.88h3.06v2.6h.07c.98-1.71 2.85-2.95 5.62-2.95 4.01 0 6.33 2.6 6.33 6.77v11.87h-3.06v-11.32c0-2.97-1.39-4.61-4.2-4.61s-4.76 2.06-4.76 5.17v10.76h-3.06v-18.28z"/><path d="m882.76 916.83-.04-.16h3.08l.07.16c.58 1.32 2.32 2.13 4.82 2.13 3.22 0 5.04-1.78 5.04-4.61v-2.34h-.07c-1.09 2.02-3.2 3.32-5.82 3.32-4.61 0-7.75-3.71-7.75-9.42v-.02c0-5.68 3.18-9.37 7.82-9.37 2.58 0 4.62 1.41 5.75 3.45h.07v-3.09h3.06v17.77c0 4.24-3.11 7.01-8.07 7.01-4.52 0-7.37-2.13-7.96-4.83zm12.97-10.92v-.02c0-4.03-2.13-6.66-5.22-6.66-3.25 0-5.29 2.6-5.29 6.66v.02c0 4.15 2.04 6.71 5.29 6.71s5.22-2.65 5.22-6.71z"/><path d="m914.93 906.02-6.12-9.14h3.41l4.39 6.86h.07l4.34-6.86h3.41l-6.17 9.02 6.08 9.26h-3.39l-4.38-6.96h-.07l-4.41 6.96h-3.39l6.22-9.14z"/><path d="m156.99 167.4h3.06v2.67h.07c.83-1.81 2.65-3.02 5.01-3.02 2.5 0 4.34 1.28 5.13 3.52h.07c1.02-2.2 3.16-3.52 5.73-3.52 3.62 0 5.96 2.37 5.96 6.01v12.62h-3.06v-11.92c0-2.51-1.39-4.01-3.8-4.01s-4.13 1.81-4.13 4.31v11.62h-3.06v-12.25c0-2.21-1.48-3.67-3.74-3.67-2.43 0-4.18 1.92-4.18 4.46v11.46h-3.06z"/><path d="m210.88 177.03-17.4 6.66v-2.71l14.85-5.57-14.85-5.55v-2.78l17.4 6.66z"/><path d="m224.61 162.73h-.04l-3.34 2.13v-2.34l3.38-2.2h2.39v12.3h-2.39v-9.9zm-1.95 22.96 16.28-25.37h2.85l-16.24 25.37h-2.88zm13.27-1.81 4.55-4.03c1.69-1.48 2.06-2.07 2.06-2.92v-.02c-.02-.98-.86-1.71-2.09-1.71-1.39 0-2.37.83-2.39 1.92l-.02.07h-2.25v-.07c0-2.32 2-3.96 4.64-3.96s4.46 1.49 4.46 3.59v.02c0 1.51-.72 2.48-2.99 4.41l-2.74 2.41h5.92v2.09h-9.16v-1.81z"/><path d="m156.99 210.6h3.06v2.67h.07c.83-1.81 2.65-3.02 5.01-3.02 2.5 0 4.34 1.28 5.13 3.52h.07c1.02-2.2 3.16-3.52 5.73-3.52 3.62 0 5.96 2.37 5.96 6.01v12.62h-3.06v-11.92c0-2.51-1.39-4.01-3.8-4.01s-4.13 1.81-4.13 4.31v11.62h-3.06v-12.25c0-2.21-1.48-3.67-3.74-3.67-2.43 0-4.18 1.92-4.18 4.46v11.46h-3.06z"/><path d="m185.01 219.74v-.04c0-5.82 3.41-9.46 8.46-9.46s8.47 3.62 8.47 9.46v.04c0 5.84-3.41 9.49-8.46 9.49s-8.47-3.67-8.47-9.49zm13.8 0v-.04c0-4.29-2.11-6.75-5.34-6.75s-5.33 2.48-5.33 6.75v.04c0 4.31 2.13 6.79 5.36 6.79s5.31-2.5 5.31-6.79z"/><path d="m202.72 210.6h3.22l5.04 15.03h.07l5.06-15.03h3.18l-6.71 18.28h-3.13z"/><path d="m220.09 219.81v-.02c0-5.66 3.23-9.54 8.23-9.54s8.03 3.71 8.03 9.19v1.12h-13.17c.07 3.76 2.14 5.96 5.4 5.96 2.32 0 3.96-1.16 4.48-2.72l.05-.16h3.01l-.04.18c-.6 3.02-3.59 5.41-7.58 5.41-5.26 0-8.42-3.67-8.42-9.42zm3.15-1.63h10c-.3-3.55-2.27-5.22-4.94-5.22s-4.73 1.81-5.06 5.22z"/><path d="m246.07 223.71v-.04c0-3.11 2.43-5.06 6.63-5.31l5.24-.3v-1.53c0-2.23-1.46-3.59-4.01-3.59-2.36 0-3.83 1.12-4.18 2.76l-.04.16h-2.95l.02-.19c.26-3.01 2.88-5.43 7.19-5.43s7.03 2.34 7.03 5.99v12.64h-3.06v-2.97h-.07c-1.07 2-3.27 3.32-5.71 3.32-3.64 0-6.08-2.2-6.08-5.52zm6.77 2.87c2.88 0 5.1-1.99 5.1-4.64v-1.49l-4.89.3c-2.44.14-3.85 1.23-3.85 2.94v.04c0 1.76 1.44 2.87 3.64 2.87z"/><path d="m265.04 203.52h3.06v25.37h-3.06z"/><path d="m271.33 219.74v-.04c0-5.82 3.41-9.46 8.46-9.46s8.47 3.62 8.47 9.46v.04c0 5.84-3.41 9.49-8.46 9.49s-8.47-3.67-8.47-9.49zm13.8 0v-.04c0-4.29-2.11-6.75-5.34-6.75s-5.33 2.48-5.33 6.75v.04c0 4.31 2.13 6.79 5.36 6.79s5.31-2.5 5.31-6.79z"/><path d="m291.34 210.6h3.06v2.6h.07c.98-1.71 2.85-2.95 5.62-2.95 4.01 0 6.33 2.6 6.33 6.77v11.87h-3.06v-11.32c0-2.97-1.39-4.61-4.2-4.61s-4.76 2.06-4.76 5.17v10.76h-3.06v-18.28z"/><path d="m310.07 230.55-.04-.16h3.08l.07.16c.58 1.32 2.32 2.13 4.82 2.13 3.22 0 5.04-1.78 5.04-4.61v-2.34h-.07c-1.09 2.02-3.2 3.32-5.82 3.32-4.61 0-7.75-3.71-7.75-9.42v-.02c0-5.68 3.18-9.37 7.82-9.37 2.58 0 4.62 1.41 5.75 3.45h.07v-3.09h3.06v17.77c0 4.24-3.11 7.01-8.07 7.01-4.52 0-7.37-2.13-7.96-4.83zm12.97-10.92v-.02c0-4.03-2.13-6.66-5.22-6.66-3.25 0-5.29 2.6-5.29 6.66v.02c0 4.15 2.04 6.71 5.29 6.71s5.22-2.65 5.22-6.71z"/><path d="m337.57 234.89v-2.5c.26.05.62.11.98.11 1.93 0 3.01-.49 3.74-2.57l.37-1.04-6.79-18.3h3.27l5.04 15.22h.07l5.06-15.22h3.22l-7.14 19.42c-1.3 3.5-2.9 5.01-6.21 5.01-.6 0-1.25-.07-1.63-.14z"/></svg>